<svg width="648" height="793" viewBox="0 0 648 793" fill="none" xmlns="http://www.w3.org/2000/svg">
<path d="M306.5 555.5V512L359.5 566.5L306.5 555.5Z" fill="#F6D5DC"/>
<path d="M146.5 389L81.5 298L211.5 308L146.5 389Z" fill="#F6B2C1"/>
<path d="M211 309L80.5 297.5L218.5 187L211 309Z" fill="#F6D5DC"/>
<path d="M122 184.5L25.5 166L93.5 107L122 184.5Z" fill="#F6D5DC"/>
<path d="M94.5 106.5L26 166L3.5 119L94.5 106.5Z" fill="#DE9EAC"/>
<path d="M94 107.5L4.5 120.5L135.5 60.5L94 107.5Z" fill="#F58AA1"/>
<path d="M188 136L92.5 108L135 60L188 136Z" fill="#F6D5DC"/>
<path d="M135 61L87 1L168 59.5L135 61Z" fill="#DE9EAC"/>
<path d="M95 43.5L88 0L136.5 61L95 43.5Z" fill="#F6D5DC"/>
<path d="M0 160L4 117.5L27.5 166L0 160Z" fill="#F58AA1"/>
<path d="M121.5 185L92 107L188 134.5L121.5 185Z" fill="#F6B2C1"/>
<path d="M188.5 479L146.5 389L306.5 329L188.5 479Z" fill="#DE9EAC"/>
<path d="M305.5 456V329.5L450.5 424.5L305.5 456Z" fill="#F58AA1"/>
<path d="M304.5 329L551.5 310L450 425.5L304.5 329Z" fill="#F6B2C1"/>
<path d="M449 425L551 309.5L632 416.5L449 425Z" fill="#F6D5DC"/>
<path d="M449 423.5L632 416L587.5 546.5L449 423.5Z" fill="#F58AA1"/>
<path d="M306.5 456.854L188.5 479L306.5 329V456.854Z" fill="#F6D5DC"/>
<path d="M306.5 584.5L190 478L306.5 455V584.5Z" fill="#F6B2C1"/>
<path d="M240.5 685.5L188 474.5L307 583.5L240.5 685.5Z" fill="#F58AA1"/>
<path d="M240 683L308 580.5L242.5 788.5L240 683Z" fill="#F6D5DC"/>
<path d="M213 768.5L240.5 683L242 789L213 768.5Z" fill="#F6B2C1"/>
<path d="M208.5 788L213 767.5L241.5 788H208.5Z" fill="#F58AA1"/>
<path d="M290.5 782L295 762L318.5 782H290.5Z" fill="#F6B2C1"/>
<path d="M295 764.5L317 709V782.5L295 764.5Z" fill="#F58AA1"/>
<path d="M358.5 567L450 421V538.5L358.5 567Z" fill="#F58AA1"/>
<path d="M447.5 554.5L450 422L587.5 546L447.5 554.5Z" fill="#F6B2C1"/>
<path d="M613 630.5L446 553.5L587 545L613 630.5Z" fill="#F6D5DC"/>
<path d="M568 678.5L446 553L613.5 630L568 678.5Z" fill="#F58AA1"/>
<path d="M451 423.5L305.5 456V514L359.5 567L451 423.5Z" fill="#DE9EAC"/>
<path d="M338.5 641L297.5 611.5L285 652L316.5 713L338.5 641Z" fill="#F58AA1"/>
<path d="M343 700L337 639L316 711.5V782L343 700Z" fill="#F6D5DC"/>
<path d="M146.5 389L210.5 309L306.5 329L146.5 389Z" fill="#F58AA1"/>
<path d="M156.5 537L130.5 493L198.5 509L207 547L156.5 537Z" fill="#DE9EAC"/>
<path d="M75.5 399L80 295.5L147.5 390L189.5 479L197.5 509L132.5 496L75.5 399Z" fill="#F6D5DC"/>
<path d="M143.5 166.5L158 156.5L218 188L80 299L143.5 166.5Z" fill="#F58AA1"/>
<path d="M135 60.5L166.5 59L197.5 81L187 136.5L135 60.5Z" fill="#F58AA1"/>
<path d="M186.5 135L158 156.5L218 189L220.5 141L197 82.5L186.5 135Z" fill="#F6B2C1"/>
<path d="M121.5 183L80 176.5V298.5L145 166L121.5 183Z" fill="#DE9EAC"/>
<path d="M329.5 560L306.5 555.5V583.5L297.5 612L337.5 642L329.5 560Z" fill="#DE9EAC"/>
<path d="M613 630.5L568 678L571 792.5L613 630.5Z" fill="#DE9EAC"/>
<path d="M447.5 538.5L436 543V576.5L499.5 608L447.5 555V538.5Z" fill="#F6D5DC"/>
<path d="M538 646.5L506 663.5L436 576.5L499.5 608L538 646.5Z" fill="#F6B2C1"/>
<path d="M506 663.5L494.5 778L547 656.5L537.5 646.5L506 663.5Z" fill="#F6D5DC"/>
<path d="M474.5 759L494.5 779L505.5 666L474.5 759Z" fill="#F58AA1"/>
<path d="M466 780L474.5 759L495 780H466Z" fill="#F6B2C1"/>
<path d="M543 772L568 677.5L570.5 793L543 772Z" fill="#F6D5DC"/>
<path d="M569.5 792H537.5L543 772L569.5 792Z" fill="#F58AA1"/>
<path d="M588 283.5L551.5 310.5L596 335.5L588 283.5Z" fill="#F58AA1"/>
<path d="M613 391.5L618 397L647.5 319.5L596 335.5L615.5 352.5L613 391.5Z" fill="#F58AA1"/>
<path d="M647.5 320L588 284L595.5 335.5L647.5 320Z" fill="#DE9EAC"/>
<path d="M571.5 337L552.5 311.5L595 334.5L571.5 337Z" fill="#F6B2C1"/>
<path d="M644.5 430L647.5 319.5L617.5 396.5L632 416L629.5 423L644.5 430Z" fill="#F6D5DC"/>
</svg>
